# xmcd
#
# Track frame offsets: 
#        150
#        12950
#        23236
#        31732
#        41188
#        49676
#        64204
#        74514
#        90437
#        101723
#        114078
#        123534
#        147027
#        158714
#        169267
#        181998
#        193219
#        202912
#        209995
#        222695
#        232125
#        242392
#        256230
#        262580
#
# Disc length: 3665 seconds
#
# Revision: 5
# Processed by: cddbd v1.5.2PL0 Copyright (c) Steve Scherf et al.
# Submitted via: ExactAudioCopyFreeDBPlugin 1.0
#
DISCID=5b0e4f18
DTITLE=Léo Ferré - Les Poêtes (Vol 3)
DYEAR=1900
DGENRE=Vocal
TTITLE0=Ecoutez la chanson bien douce
TTITLE1=Chanson de la plus haute tour
TTITLE2=Il patinait merveilleusement
TTITLE3=Mon rêve familier
TTITLE4=Soleils couchants
TTITLE5=Les assis
TTITLE6=L'espoir luit comme un brin de paille dans l'étable
TTITLE7=Art poétique
TTITLE8=Pensionniares
TTITLE9=Ame, te souvient-il ?
TTITLE10=Le buffet
TTITLE11=Les poètes de sept ans
TTITLE12=Chanson d'automne
TTITLE13=Les corbeaux
TTITLE14=Green
TTITLE15=Mes petites amoureuses
TTITLE16=Je vous vois encor
TTITLE17=L'étoile a pleuré rose
TTITLE18=O triste, triste était mon âme
TTITLE19=Rêvé pour l'hiver
TTITLE20=Clair de lune
TTITLE21=Les chercheuses de poux
TTITLE22=Ma bohème
TTITLE23=Sérénade
EXTD=
EXTT0=
EXTT1=
EXTT2=
EXTT3=
EXTT4=
EXTT5=
EXTT6=
EXTT7=
EXTT8=
EXTT9=
EXTT10=
EXTT11=
EXTT12=
EXTT13=
EXTT14=
EXTT15=
EXTT16=
EXTT17=
EXTT18=
EXTT19=
EXTT20=
EXTT21=
EXTT22=
EXTT23=
PLAYORDER=
